<svg xmlns="http://www.w3.org/2000/svg" viewBox="0 0 64 64" role="img" aria-label="衡燃图标">
  <defs>
    <linearGradient id="a" x1="12" y1="54" x2="50" y2="8" gradientUnits="userSpaceOnUse">
      <stop stop-color="#d7ee75"/>
      <stop offset="1" stop-color="#f4bd61"/>
    </linearGradient>
  </defs>
  <rect width="64" height="64" rx="20" fill="#285247"/>
  <path d="M35.5 10.5c2.2 8.4-3.7 12.2-3.7 18 0 2.7 1.3 4.7 3.5 6.3-.2-5.5 3.2-8.6 7.1-11.2 5.1 5.3 8.1 11.2 6.4 18.1C46.8 49.8 40.5 54 32.1 54 22 54 15 47.7 15 38.3c0-8 4.9-14.7 12.9-21.2.4 5 2.1 8.2 4.3 10.3.4-6.2 4.9-9.6 3.3-16.9Z" fill="url(#a)"/>
  <path d="M26 44.5c5.7-1.2 10.1-4.4 13.2-9.7.7 6.4-2 11-8.2 13.8" fill="none" stroke="#183f35" stroke-width="3.2" stroke-linecap="round"/>
</svg>
